<?xml version="1.0" encoding="utf-8"?>
<!-- Generator: Adobe Illustrator 15.0.0, SVG Export Plug-In . SVG Version: 6.00 Build 0)  -->
<!DOCTYPE svg PUBLIC "-//W3C//DTD SVG 1.1//EN" "http://www.w3.org/Graphics/SVG/1.1/DTD/svg11.dtd">
<svg version="1.1" id="Layer_1" xmlns="http://www.w3.org/2000/svg" xmlns:xlink="http://www.w3.org/1999/xlink" x="0px" y="0px"
	 width="452.402px" height="245.667px" viewBox="90.364 272.008 452.402 245.667"
	 enable-background="new 90.364 272.008 452.402 245.667" xml:space="preserve">
<g id="Layer_x0020_1">
	<path fill="#0093DD" d="M175.477,459.319c0,0.094-0.046,0.184-0.137,0.275c-0.05,0.047-0.118,0.068-0.21,0.068h-12.772
		c-0.046,0.047-0.093,0.047-0.139,0c-0.138,0-0.255-0.113-0.347-0.346l-14.713-28.943l0.625,5.762l0.624,23.184
		c0,0.094-0.025,0.146-0.071,0.172s-0.091,0.061-0.139,0.104c-0.046,0.047-0.092,0.068-0.137,0.068h-14.854
		c-0.094,0-0.162-0.021-0.209-0.068c-0.137-0.094-0.185-0.184-0.137-0.275c0.044-7.033,0.115-13.352,0.207-18.949
		c0-2.359,0.011-4.686,0.035-6.979c0.023-2.289,0.047-4.311,0.069-6.068c0.021-1.758,0.057-3.75,0.104-5.973
		c-0.092-1.987-0.395-3.445-0.903-4.372c-0.507-0.925-1.029-1.597-1.56-2.013s-0.995-0.704-1.389-0.867
		c-0.394-0.162-0.497-0.45-0.312-0.867c0.185-0.555,0.61-1.146,1.283-1.77c0.672-0.625,1.47-1.18,2.394-1.668
		c0.926-0.483,1.944-0.89,3.054-1.215c1.112-0.322,2.244-0.484,3.402-0.484c1.389,0,2.625,0.232,3.713,0.693
		c1.085,0.463,2.082,1.088,2.984,1.875c0.902,0.784,1.757,1.713,2.569,2.776c0.807,1.063,1.629,2.222,2.462,3.47
		c0.834,1.479,1.726,3.03,2.673,4.65c0.946,1.619,1.887,3.285,2.812,4.996c0.925,1.713,1.828,3.426,2.706,5.139
		c0.879,1.711,1.711,3.4,2.499,5.066l-0.693-6.666l-0.347-19.709c-0.048-0.092-0.025-0.184,0.068-0.279
		c0.045-0.045,0.115-0.068,0.209-0.068h14.438c0.044,0,0.091,0.023,0.137,0.068c0.139,0.139,0.209,0.232,0.209,0.279
		L175.477,459.319L175.477,459.319z"/>
	<path fill="#0093DD" d="M186.859,408.374c1.343,0,2.638,0.207,3.888,0.625c1.248,0.416,2.349,1.076,3.297,1.979
		c0.947,0.902,1.7,2.046,2.257,3.436c0.555,1.389,0.833,3.078,0.833,5.066v39.84c0,0.096-0.024,0.148-0.071,0.174
		c-0.048,0.025-0.092,0.061-0.138,0.104c-0.047,0.049-0.094,0.07-0.138,0.07h-14.783c-0.049,0-0.095-0.021-0.14-0.07
		c-0.141-0.092-0.186-0.182-0.141-0.277v-14.297v-10.203v-6.768v-3.99v-2.43c-0.186-2.082-0.543-3.584-1.076-4.51
		c-0.532-0.927-1.073-1.588-1.63-1.979c-0.556-0.394-1.007-0.659-1.354-0.798c-0.348-0.139-0.451-0.44-0.313-0.901
		c0.186-0.558,0.603-1.135,1.251-1.737c0.646-0.6,1.41-1.146,2.29-1.631c0.877-0.484,1.84-0.891,2.88-1.216
		C184.812,408.538,185.841,408.374,186.859,408.374L186.859,408.374z"/>
	<path fill="#0093DD" d="M241.208,410.458c0.041-0.141,0.139-0.233,0.276-0.281c0.045-0.045,0.112-0.067,0.207-0.067h13.396
		c0.093,0,0.162,0.022,0.207,0.067c0.094,0.093,0.141,0.187,0.141,0.281l0.209,48.861c0,0.096-0.023,0.148-0.068,0.174
		c-0.049,0.023-0.095,0.061-0.141,0.104c-0.094,0.049-0.164,0.07-0.207,0.07h-14.16c-0.094,0-0.163-0.021-0.208-0.07
		c-0.139-0.092-0.187-0.182-0.139-0.277l0.208-22.209l1.318-7.15c-0.093,0.189-0.324,0.625-0.693,1.32
		c-0.372,0.695-0.823,1.539-1.354,2.533c-0.531,0.994-1.123,2.105-1.77,3.332c-0.648,1.227-1.297,2.463-1.945,3.713
		c-1.525,2.912-3.236,6.176-5.136,9.785c-0.095,0.186-0.392,0.277-0.901,0.277h-1.943c-0.416,0-0.658-0.01-0.729-0.033
		s-0.15-0.105-0.242-0.244l-11.385-20.891l1.319,6.453l0.418,23.113c0,0.096-0.024,0.148-0.07,0.174
		c-0.048,0.023-0.095,0.061-0.14,0.104c-0.048,0.049-0.094,0.07-0.139,0.07h-14.646c-0.093,0-0.16-0.021-0.207-0.07
		c-0.138-0.092-0.184-0.182-0.138-0.277c0.043-7.033,0.114-13.348,0.208-18.947c0.044-2.359,0.08-4.686,0.103-6.977
		c0.025-2.291,0.047-4.312,0.069-6.07c0.022-1.76,0.059-3.75,0.105-5.971c-0.095-1.99-0.382-3.447-0.868-4.374
		c-0.487-0.925-0.997-1.596-1.527-2.012c-0.531-0.417-0.983-0.705-1.353-0.868c-0.37-0.161-0.462-0.45-0.278-0.867
		c0.186-0.555,0.624-1.146,1.319-1.77c0.694-0.625,1.526-1.178,2.5-1.666c0.97-0.485,2.033-0.891,3.191-1.217
		c1.155-0.321,2.313-0.484,3.471-0.484c1.664,0,3.111,0.29,4.339,0.867c1.223,0.58,2.336,1.343,3.33,2.291
		c0.995,0.949,1.908,2.061,2.742,3.332c0.831,1.273,1.642,2.604,2.43,3.99c0.878,1.48,1.735,3.01,2.566,4.58
		c0.834,1.576,1.573,3.01,2.222,4.307c0.787,1.525,1.505,2.984,2.151,4.371L241.208,410.458L241.208,410.458z"/>
	<path fill="#0093DD" d="M280.836,452.864c1.945,0,3.435-0.67,4.478-2.014c1.041-1.344,1.562-3.145,1.562-5.412
		c0-1.572-0.324-2.961-0.971-4.164c-0.648-1.203-1.517-2.164-2.605-2.885c-1.086-0.715-2.358-1.199-3.816-1.455
		c-1.457-0.256-2.994-0.221-4.613,0.105v8.953c0.045,0.832,0.174,1.666,0.381,2.5c0.209,0.832,0.543,1.572,1.006,2.221
		c0.464,0.648,1.064,1.17,1.806,1.561C278.799,452.667,279.726,452.864,280.836,452.864L280.836,452.864z M283.82,422.116
		c0-1.572-0.312-2.798-0.933-3.68c-0.629-0.878-1.391-1.516-2.295-1.907c-0.902-0.394-1.872-0.577-2.914-0.555
		c-1.039,0.022-1.979,0.128-2.811,0.312v13.119c1.619,0,2.994-0.209,4.127-0.625c1.135-0.416,2.062-0.959,2.776-1.631
		c0.717-0.672,1.239-1.447,1.562-2.326C283.659,423.946,283.82,423.042,283.82,422.116L283.82,422.116z M292.43,431.137
		c-0.28,0.188-0.256,0.326,0.066,0.418c1.525,0.557,2.869,1.281,4.027,2.186c1.152,0.902,2.113,1.922,2.879,3.055
		c0.764,1.135,1.328,2.338,1.699,3.611c0.369,1.27,0.557,2.51,0.557,3.711c0,3.055-0.613,5.658-1.84,7.807
		c-1.227,2.154-2.846,3.924-4.857,5.312c-2.015,1.389-4.34,2.395-6.977,3.02c-2.639,0.623-5.346,0.936-8.119,0.936
		c-3.889,0-7.128-0.637-9.718-1.908c-2.591-1.271-4.664-2.902-6.214-4.893c-1.549-1.988-2.646-4.176-3.295-6.559
		s-0.973-4.66-0.973-6.836v-29.916c0-0.186,0.045-0.3,0.14-0.347c0.09-0.047,0.159-0.069,0.208-0.069
		c1.525-0.369,3.236-0.719,5.137-1.043c1.619-0.277,3.562-0.529,5.831-0.764c2.263-0.23,4.81-0.348,7.634-0.348
		c2.221,0,4.485,0.188,6.803,0.557c2.312,0.372,4.418,1.03,6.313,1.977c1.896,0.951,3.447,2.233,4.651,3.854
		c1.201,1.619,1.803,3.653,1.803,6.108c0,1.205-0.176,2.359-0.518,3.471c-0.35,1.111-0.801,2.117-1.356,3.02
		c-0.554,0.9-1.179,1.664-1.874,2.291C293.747,430.411,293.075,430.862,292.43,431.137L292.43,431.137z"/>
	<path fill="#0093DD" d="M346.426,410.385c0,1.203-0.012,2.673-0.037,4.406c-0.021,1.736-0.033,3.588-0.033,5.555
		c0,1.965-0.012,3.99-0.033,6.074c-0.023,2.08-0.035,4.117-0.035,6.107v5.586v4.406c0.047,3.104-0.521,5.811-1.699,8.121
		c-1.18,2.314-2.742,4.26-4.686,5.83c-1.943,1.574-4.166,2.74-6.664,3.504c-2.498,0.766-5.057,1.158-7.67,1.184
		c-2.613,0.02-5.172-0.352-7.67-1.111c-2.498-0.766-4.719-1.92-6.662-3.471s-3.516-3.473-4.721-5.762
		c-1.203-2.291-1.805-4.986-1.805-8.088v-0.068v-17.77c0-1.941-0.139-3.516-0.416-4.719s-0.615-2.162-1.008-2.877
		c-0.395-0.717-0.82-1.252-1.283-1.599c-0.465-0.347-0.867-0.601-1.215-0.763c-0.346-0.164-0.623-0.311-0.832-0.452
		c-0.211-0.138-0.268-0.37-0.174-0.694c0.186-0.602,0.564-1.205,1.145-1.804c0.578-0.601,1.273-1.155,2.082-1.668
		c0.812-0.507,1.701-0.924,2.672-1.249c0.975-0.322,1.969-0.486,2.984-0.486c1.48,0,2.904,0.256,4.27,0.765
		c1.365,0.508,2.568,1.25,3.609,2.22c1.039,0.973,1.875,2.141,2.5,3.504c0.623,1.37,0.936,2.906,0.936,4.616v26.585v0.137
		c0,1.943,0.559,3.402,1.668,4.375c1.109,0.971,2.324,1.457,3.645,1.457c1.318,0,2.531-0.486,3.643-1.457
		c1.111-0.973,1.666-2.451,1.666-4.443v-35.881c0-0.142,0.045-0.254,0.139-0.35c0.047-0.045,0.094-0.068,0.139-0.068h15.271
		c0.045,0,0.092,0.023,0.139,0.068C346.379,410.202,346.428,410.293,346.426,410.385L346.426,410.385z"/>
	<path fill="#0093DD" d="M377.104,431.417c1.76,0.557,3.553,1.225,5.381,2.014c1.828,0.787,3.469,1.75,4.926,2.879
		c1.461,1.137,2.648,2.498,3.576,4.098c0.924,1.596,1.387,3.459,1.387,5.584c0,2.871-0.717,5.275-2.15,7.219
		c-1.434,1.945-3.262,3.506-5.482,4.689c-2.221,1.18-4.686,2.02-7.393,2.531c-2.709,0.51-5.334,0.764-7.877,0.764
		c-1.943,0-4.086-0.174-6.422-0.521c-2.338-0.348-4.521-0.971-6.559-1.873c-2.037-0.9-3.76-2.119-5.17-3.645
		c-1.414-1.527-2.211-3.471-2.396-5.832c-0.092-0.971,0.035-1.93,0.383-2.879s0.867-1.793,1.562-2.535
		c0.693-0.738,1.514-1.34,2.463-1.803s2.023-0.695,3.227-0.695c0.74,0,1.492,0.07,2.258,0.209c0.762,0.139,1.469,0.312,2.113,0.52
		c0.65,0.211,1.193,0.418,1.633,0.625c0.439,0.209,0.73,0.406,0.869,0.592c0.184,0.232,0.193,0.672,0.035,1.318
		c-0.166,0.648-0.246,1.408-0.246,2.289c0,1.482,0.324,2.719,0.973,3.715c0.648,0.994,1.436,1.744,2.361,2.256
		c0.926,0.51,1.932,0.785,3.02,0.832c1.086,0.049,2.104-0.148,3.053-0.592c0.949-0.438,1.736-1.086,2.361-1.939
		c0.625-0.855,0.959-1.934,1.006-3.229c0-1.25-0.396-2.311-1.18-3.191c-0.787-0.883-1.816-1.666-3.088-2.359
		c-1.275-0.695-2.709-1.355-4.305-1.98c-1.598-0.623-3.205-1.283-4.826-1.979c-1.434-0.65-2.912-1.318-4.439-2.012
		s-2.928-1.553-4.199-2.57s-2.338-2.244-3.189-3.678c-0.859-1.434-1.332-3.217-1.426-5.344c-0.139-2.406,0.383-4.616,1.561-6.631
		c1.182-2.01,2.732-3.735,4.65-5.168c1.92-1.436,4.098-2.559,6.525-3.368c2.43-0.808,4.846-1.238,7.252-1.285
		c2.777-0.045,5.391,0.164,7.844,0.626c2.451,0.464,4.596,1.217,6.42,2.254c1.828,1.042,3.287,2.342,4.377,3.889
		c1.082,1.549,1.627,3.365,1.627,5.449c0.049,2.359-0.564,4.27-1.838,5.725c-1.273,1.459-3.299,2.188-6.074,2.188
		c-1.572,0-2.902-0.195-3.988-0.59c-1.09-0.393-1.729-0.752-1.91-1.076c-0.092-0.229-0.082-0.809,0.035-1.734
		c0.113-0.926,0.195-1.852,0.242-2.777c0.045-1.25-0.176-2.301-0.658-3.157c-0.488-0.854-1.137-1.502-1.943-1.94
		c-0.811-0.44-1.689-0.695-2.641-0.766c-0.947-0.068-1.852,0.069-2.707,0.416c-0.855,0.35-1.584,0.891-2.186,1.631
		c-0.6,0.742-0.947,1.691-1.041,2.846c0,1.25,0.348,2.396,1.041,3.438c0.695,1.041,1.607,1.967,2.742,2.773
		c1.133,0.811,2.439,1.527,3.922,2.152C374.073,430.411,375.577,430.954,377.104,431.417L377.104,431.417z"/>
	<path fill="#EB891B" d="M374.366,376.736c-0.006,6.571-1.238,12.952-3.557,18.978c0.766-5.91,0.533-12.031-0.816-18.228
		c-7.854-36.067-50.529-61.139-95.32-55.998c-21.455,2.464-39.492,11.416-51.609,24.036c19.65,3.512,37.02,12.525,49.173,26.171
		c-26.046-18.683-65.098-22.674-101.904-7.378C118.166,386,90.276,438.215,108.034,480.944c3.052,7.342,7.254,13.93,12.385,19.688
		c-10.868-7.795-19.474-18.148-24.704-30.729c-17.759-42.73,10.133-94.943,62.299-116.625c19.955-8.294,40.573-10.915,59.419-8.6
		c11.004-18.52,32.887-32.317,60.366-35.471c44.791-5.143,87.471,19.928,95.322,55.994c0.111,0.512,0.209,1.024,0.305,1.536
		C373.426,366.739,374.581,372.017,374.366,376.736L374.366,376.736z"/>
	<path fill="#0093DD" d="M439.911,450.866l-0.574,2.336l-0.41,0.287c0,0-0.779,0.082-0.861,0.246s-0.492,0.367-0.531,0.531
		c-0.043,0.164-0.289,0.451-0.289,0.451l-0.369,0.328l-0.863-0.328c0,0-0.49,0-0.531,0.123s-0.492,0.492-0.492,0.492l-1.803-0.859
		l-0.943-0.289l-0.334-0.207c0,0,0.117,0.084,0-0.117c-0.119-0.207-0.09-0.412,0-0.619c0.09-0.205,0.578-0.777,0.578-0.777
		s0.123-0.902,0.246-0.943s0.369-0.697,0.408-0.818c0.045-0.127,0.166-0.537,0.166-0.537l0.166-0.328v-0.367
		c0,0-1.932-5.17-3.982-5.254c-2.051-0.08-4.471-0.734-6.191,2.627c0,0-0.617,1.848-0.453,3.609l-0.287-0.121
		c0,0-0.451-0.248-0.451-0.412c0-0.162-0.121-1.803-0.121-1.803l-0.535-1.107l-0.326-0.576c0,0-0.494-8.408-0.494-8.531
		c0-0.125-0.367-3.486-0.367-3.486l-0.494-3.98c0,0-0.244-1.066-0.203-1.232c0.039-0.164,0.203-1.311,0.203-1.518
		c0-0.205-0.041-1.434-0.041-1.434l0.041-0.369c0,0,7.139,1.23,7.713,1.598c0.574,0.373,4.021,1.807,4.021,1.807
		s3.98,1.559,5.498,1.025c1.518-0.535,6.318,2.707,6.893,3.324c0.572,0.615-0.656,3.691-0.656,3.691l-1.15,4.307l-0.49,2.465
		L439.911,450.866z M452.34,457.465c-0.084-0.205,0.043-0.777,0-0.943c-0.039-0.164-0.41-0.779-0.41-0.779s-0.697-0.736-0.775-0.861
		c-0.082-0.123-1.029-0.779-1.275-0.902c-0.244-0.121-0.244,0.043-0.697,0c-0.449-0.037,0,0.617,0,0.617s-0.162,0.738-0.287,0.861
		c-0.121,0.123,0,0.451,0,0.451s-0.447,0.205-0.613,0.369c-0.164,0.164-0.328,0.367-0.492,0.572s0,0.494,0,0.494l0.492,1.146v0.74
		c0,0-0.123,0.244-0.285,0.285c-0.16,0.043,0,0.574,0,0.574l-0.289,0.373l-0.451,0.078l-0.451-0.246
		c0.203-1.188-3.486-2.912-3.689-3.158c-0.207-0.246-0.375-0.287-0.455-0.41c-0.08-0.125,0-0.41,0-0.738s-0.285-0.574-0.285-0.574
		l-0.654,0.164h-0.658c0,0-0.658-0.164-0.861-0.289c-0.205-0.123,0-0.695,0-0.695l0.246-1.561l1.105-2.871l1.686-5.045l2.5-6.852
		c0,0,0.412-1.271,0.371-1.641s0.205-0.494,0.287-0.656c0.082-0.164,0.285-0.699,0.285-0.699l0.164-1.721l0.82-0.043
		c0,0,0.371-0.205,0.326-0.369c-0.037-0.164-0.16-0.41-0.242-0.656c-0.084-0.246-0.203-0.656-0.203-0.656l-0.291-0.82l-1.189-1.27
		l-0.574-1.025c0,0-0.082-0.615-0.697-2.299c-0.613-1.684-1.557-0.369-1.557-0.369l-0.945,0.945l-0.861,0.283l-1.354,0.699
		l-0.945,0.779l-0.369,0.738l-0.328,0.082l-2.791-3.16c-3.645-2.623-7.791-0.369-7.791-0.369c1.064-2.008-1.025-4.143-1.025-4.143
		s0.287-0.082-0.656-1.641c-0.941-1.559-2.502,0.533-2.502,0.533l-1.725,1.477l-1.148,0.738l-1.477,0.656
		c0,0-0.736,0.082-1.766,0.492c-1.025,0.412,0.697,1.969,0.697,1.969l0.084,1.971l0.164,0.861l0.203,0.451l0.615,7.016l0.533,3.855
		l0.166,5.541v0.939v4.021l0.246,3.404c-2.301,0.205-5.131,6.439-5.131,6.439l-4.145-1.887l-1.434-1.561c0,0,0.08-1.967,0.08-2.215
		v-0.777c0-0.326-0.041-0.656-0.041-0.656l-0.369-0.451l-0.613-0.287h-0.617c0,0-0.121,0.287-0.244,0.41
		c-0.125,0.123-0.207,0.309-0.207,0.309l-0.656,0.021c0,0-0.244-0.041-0.697,0c-0.449,0.035-0.121,0.531-0.162,0.695
		s0,0.779,0,0.779l0.162,0.656l0.246,1.23l1.314,2.543l1.846,1.723l0.9,1.314c0,0,1.93,1.477,3.568,2.459
		c1.643,0.984,3.16,0.041,3.16,0.041l2.299-1.271l0.121,0.371v0.246l0.373,0.201h1.023l0.244,0.824L421,468.702
		c0,0,0.492,2.463-0.369,3.49c-0.863,1.023-0.82,2.297-0.82,2.297l-0.861,0.656l-0.533,0.449l-0.246,0.576l-0.412,0.492l-8.039,6.77
		l-0.369,0.164l-0.41,0.205c0,0-2.629,2.871-3.65,4.145c-1.027,1.27-0.041,3.977-0.041,3.977l0.738,0.699
		c0,0-0.246,0.494,1.105,1.723c1.355,1.229,1.107,2.34,1.107,2.34l-0.041,1.023c0,0,0.453,0.494,0.82,1.148
		c0.369,0.656-0.695,0.943-0.695,0.943l-0.494,0.613l-0.246,0.738l-0.488,0.945l-0.578,1.025c0,0-1.6,0.941-2.377,1.559
		c-0.779,0.615-1.191,1.516,0.408,2.586c1.6,1.066,4.514,0.615,5.826-0.781s-0.41-0.371,3.281-1.107
		c3.691-0.74,3.486-3.119,3.486-3.119l-0.859-1.061l-1.15-1.066l-0.656-0.533l-0.203-0.289c0,0,0.285-0.943,0.08-1.641
		c-0.203-0.699-0.818,0.533,0.246-1.148c1.068-1.682,0-2.012,0.039-2.588c0.043-0.57-0.08-0.898-0.98-1.559
		c-0.902-0.652-0.656-0.98-0.656-0.98l2.584-1.93c0,0-0.205-0.615,0.492-0.615s4.227-2.377,4.227-2.377s0.41-1.15,1.395-0.863
		c0.984,0.285,2.133-0.533,2.133-0.533c0.902-1.93,0.781-0.326,0.781-0.326c0,2.459-1.396,5.002-1.396,5.002l-1.561,3.324
		c0,0-0.246,0.287-1.354,1.145c-1.107,0.865-0.535,3.082,0.246,3.777c0.779,0.697,1.105,1.805,1.105,1.805
		c0.084,1.967,3.613,3.527,3.613,3.527s1.721,0.08,1.352,1.273c-0.369,1.188,1.518,1.805,1.518,1.805l0.33,0.736l0.369,0.74
		l-0.33,0.121c-0.736,0.084,0.166,1.684,0.166,1.684l0.205,0.74l-0.041,1.025l-0.164,1.354l-0.41,1.639c0,0-0.33,0.822-0.287,2.008
		c0.041,1.193,1.354,1.521,3.355,0.943c2.004-0.572,3.289-4.059,3.004-4.84c-0.289-0.779-1.271-0.738-0.123-2.211
		c1.146-1.477,0.984-3.201,0.449-4.309c-0.531-1.107-2.051-1.148-2.051-1.148c0.779-2.422-0.41-3.936-0.41-3.936
		s-0.533-0.209-0.492-1.232c0.039-1.025-0.287-2.256-0.328-2.381s-0.082-0.41,0-0.535c0.082-0.121,0-0.693,0-0.693v-2.26
		l0.287-3.527l1.17-1.867c0,0,0.984-2.707,2.156-4.365c1.168-1.666,1.537-7.018,1.537-7.018s-0.311-1.604,0-1.908
		c0.166-0.168,0-0.678,0-0.678l0.551,0.533l0.248,0.617l0.492,0.164c0,0,0.984-0.041,1.107-0.084
		c0.123-0.039,0.574-0.326,0.574-0.326s0.33-0.453,0.33-0.658s0.08-0.617,0.039-0.861c-0.039-0.246,0.203-0.656,0.246-0.781
		c0.041-0.123,0.123-2.623,0.123-2.623l0.082-1.561l-0.164-1.352l-0.369-2.053l-0.246-2.051c0,0,0.492-0.328,0.531-0.492
		c0.043-0.166,0.369-0.207,0.369-0.207h0.373l0.611,0.287l1.271,0.654c0,0,0.615,0.371,3.406,1.273
		c2.789,0.904,1.723-0.123,3.652-0.74c1.926-0.611,1.805-2.91,1.805-2.91s-0.125-1.146-0.125-1.312c0-0.164,0.33-0.369,0.33-0.369
		s0.244-0.41,0.285-0.658c0.041-0.246,0.336-0.529,0.336-0.529S452.422,457.668,452.34,457.465L452.34,457.465z"/>
	<path fill="#0093DD" d="M352.116,297.635l2.582-2.709l3.201-2.338l2.094-0.983l3.324-1.97l3.074-1.479l1.23-0.615
		c0,0,7.51-3.569,9.477-4.186c4.859-1.516,13.756-6.98,18.588-6.768c4.248-1.104,25.012-5.121,29.412-3.818
		c4.18-1.044,28.375-1.305,32.861,1.109c4.57-1.18,25.596,3.279,28.186,8.74c7.104,2.207,37.768,19.582,39.508,24.367
		c1.893,1.189,12.162,9.508,13.045,11.078c0,0,5.539,3.812,3.691,8.368c0,0,1.602,3.938-2.83,5.782
		c-4.432,1.849-4.678,7.634-4.678,7.634s-0.492,2.459-3.57,2.952c0,0-5.045,6.152-9.354,4.062c-4.307-2.092-10.432-8.43-10.432-8.43
		c-3.086-0.167-12.773-6.832-14.061-10.771c-3.215,0.285-23.188-6.729-25.846-10.336c-2.424-0.08-17.484-2.718-18.83-4.062
		c-2.604,0.146-17.396-4.472-19.691-6.399c0,0-5.047,1.229-9.723-1.107c-1.613,0.086-15.891-2.881-17.477-3.938
		c-2.586,1.071-15.441,0.914-17.48-1.232c-1.207,0.759-13.096,3.298-13.908,2.584c-0.42,0.977-5.369,1.929-7.258,4.309l-0.863-0.861
		l-1.229-0.369l-4.309,1.97c0,0-2.709,3.692-5.293,1.97C351.473,307.461,345.446,303.452,352.116,297.635L352.116,297.635z"/>
	<path fill="#0093DD" d="M355.565,307.604l64.201,118.275L355.565,307.604z"/>
	<path fill="#0093DD" d="M366.309,305.226l53.006,118.438L366.309,305.226z"/>
	<path fill="#0093DD" d="M394.864,302.043l5.68,16.023L394.864,302.043z"/>
	<path fill="#0093DD" d="M418.659,303.911l-3.434,26.256L418.659,303.911z"/>
	<path fill="#0093DD" d="M419.233,428.135l-10.131,22.869L419.233,428.135z"/>
	<path fill="#0093DD" d="M411.606,448.485l-5.418,5.457L411.606,448.485z"/>
	<path fill="#0093DD" d="M446.68,433.958l2.5,20.021L446.68,433.958z"/>
	<path fill="#0093DD" d="M451.155,455.872l-2.371-4.865L451.155,455.872z"/>
	<path fill="#0093DD" d="M409.102,451.004v2.977V451.004z"/>
	<path fill="#E77817" d="M381.782,368.975c-2.035,0.384-4.059,0.867-6.062,1.462c-1.857,0.549-3.658,1.183-5.41,1.888
		c0.529,1.661,0.713,3.414,0.541,5.139c4.855-1.041,9.791-1.488,14.729-1.385L381.782,368.975L381.782,368.975z"/>
	<path fill="#EB891B" d="M458.333,430.012c10.086,26.488,5.051,53.42-10.949,70.695c11.572-7.947,19.631-19.828,23.336-33.607
		l0.936-3.951c2.559-12.57,1.598-26.492-3.469-40.328L458.333,430.012L458.333,430.012z"/>
	<path fill="#EB891B" d="M139.508,491.192c0-2.414-0.062-5.855-0.19-10.324c-0.191-4.512-0.255-7.043-0.255-7.559v-0.234
		C139,472.637,139,472.125,139,471.493c0-0.752,0.063-1.23,0.318-1.467c0.128-0.275,0.508-0.434,1.017-0.555h0.192
		c0.062,0,0.189,0,0.381,0.082c0.19,0,0.318,0.039,0.318,0.078c0.063,0.039,0.126,0.08,0.255,0.158
		c0.127,0.119,0.19,0.234,0.254,0.396c0,0.158,0.064,0.393,0.127,0.631c0.063,0.316,0.127,0.633,0.19,1.029
		c0.063,0.396,0.127,0.871,0.191,1.463c0.318,3.242,0.445,8.424,0.445,15.506c0,5.498-0.19,8.504-0.573,9.098
		c-0.316,0.514-1.208,0.869-2.735,1.146c-1.526,0.238-2.926,0.355-4.134,0.355c-2.48,0-4.071-0.355-4.771-1.027
		c-0.954-0.988-1.462-2.057-1.462-3.203c0-0.635,0.127-1.188,0.508-1.582c0.255-0.477,0.7-0.674,1.146-0.674
		c0.063,0.041,0.254,0.078,0.509,0.197c0.382,0.078,0.51,0.236,0.636,0.514c0,0.277,0.064,0.793,0.064,1.545
		c0,1.701,0.891,2.57,2.735,2.57c1.082,0,2.607-0.238,4.579-0.752C139.38,496.372,139.508,494.432,139.508,491.192L139.508,491.192z
		"/>
	<path fill="#EB891B" d="M168.771,481.5c0-2.691-0.062-4.195-0.128-4.512V476v-2.967c0-1.939,0.445-2.926,1.399-2.926h0.128
		c0.572,0.039,1.018,0.314,1.271,0.867c0.255,0.518,0.383,1.582,0.383,3.205v1.426c-0.191,3.045-0.383,9.529-0.637,19.381
		c-0.063,0.236-0.063,0.594-0.128,1.107v1.227c-0.062,0.275-0.19,0.594-0.444,0.869c-0.255,0.314-0.637,0.516-1.081,0.633
		c-0.826,0.275-2.228,0.436-4.199,0.436c-2.226,0-3.88-0.197-4.962-0.514c-1.08-0.396-1.716-0.752-1.78-1.188
		c-0.19-1.105-0.255-8.148-0.255-21.084c0-3.201,0.064-4.98,0.127-5.34c0-0.234,0.192-0.434,0.51-0.594
		c0.318-0.158,0.699-0.236,1.017-0.236c0.128,0.039,0.255,0.078,0.382,0.117c0.192,0.041,0.256,0.08,0.382,0.119
		c0,0.039,0.065,0.16,0.128,0.316c0.445,1.465,0.636,7.357,0.636,17.682c0,2.768,0,4.508,0.064,5.301
		c0.062,0.713,0.062,1.461,0.062,2.215v0.672v0.277c0.445,0.199,1.273,0.396,2.545,0.555c1.336,0.156,2.482,0.236,3.435,0.236h0.318
		c0.126-0.041,0.255-0.041,0.318-0.041c0.319-1.58,0.509-7,0.509-16.256V481.5L168.771,481.5z"/>
	<path fill="#EB891B" d="M199.559,491.782l7.061-23.455c0.191-0.24,0.636-0.357,1.464-0.357c1.271,0,1.907,0.158,1.907,0.516v0.395
		c0,1.229-0.063,4.312-0.191,9.295c-0.062,5.023-0.189,9.771-0.317,14.238c-0.127,4.473-0.19,6.766-0.19,6.805v0.355
		c-0.064,0.357-0.19,0.596-0.445,0.752c-0.254,0.197-0.7,0.277-1.337,0.277c-0.062,0-0.126,0-0.254-0.041h-0.382
		c-0.062-0.039-0.19-0.039-0.317-0.078c-0.127-0.037-0.191-0.078-0.317-0.158c0-0.078-0.063-0.197-0.063-0.316
		c0-0.117,0-0.275,0.063-0.475v-0.713v-2.133c0.062-1.07,0.062-2.494,0.062-4.193c0-0.99,0-1.781,0.063-2.373
		c0-0.594,0-1.148,0.064-1.662c0.063-0.516,0.063-1.701,0.19-3.561c0-1.898,0.127-4.35,0.191-7.318
		c-0.828,3.285-1.336,5.223-1.4,5.736c-0.062,0.197-0.316,1.027-0.699,2.531l-1.336,4.193l-0.637,2.057
		c-0.063,0.197-0.316,1.266-0.699,3.203c-0.381,1.939-0.697,3.086-0.892,3.441c-0.189,0.119-0.508,0.197-1.081,0.197
		c-0.126-0.039-0.253-0.039-0.445-0.039h-0.253c-0.064,0-0.127-0.039-0.191-0.08c-0.062-0.039-0.127-0.117-0.19-0.158
		c0-0.078-0.063-0.197-0.128-0.395c-0.698-1.779-2.226-5.895-4.516-12.344c-2.29-6.482-3.562-10.006-3.881-10.6
		c0.128,1.305,0.255,3.521,0.318,6.645c0.063,3.086,0.19,5.145,0.382,6.211c0.191,1.227,0.254,3.48,0.254,6.766
		c0,1.066,0,1.896-0.062,2.492c0,0.594,0,0.986-0.063,1.225c-0.063,0.277-0.063,0.436-0.128,0.475
		c-0.064,0.041-0.127,0.08-0.254,0.08c-0.255,0.039-0.955,0.08-2.163,0.08c-0.192-0.041-0.254-0.119-0.317-0.238
		c0-0.158,0-0.83-0.064-1.979c-0.063-2.529-0.19-5.102-0.318-7.752c-0.317-8.662-0.508-15.189-0.508-19.658v-0.158l0.127-0.158
		c0.063-0.119,0.254-0.197,0.509-0.275c0.19-0.08,0.572-0.119,1.082-0.119c0.062,0,0.189,0,0.444,0.039h0.318l0.255,0.119
		l1.971,3.955c1.145,1.541,2.163,3.598,3.054,6.168c0.828,2.572,1.399,4.115,1.59,4.551c0.064,0.238,0.318,1.107,0.7,2.611
		c0.381,1.502,1.018,3.402,1.907,5.656c0-0.119,0-0.24,0.064-0.279v0.002H199.559z"/>
	<path fill="#EB891B" d="M229.331,480.944c-0.129,2.77-0.188,4.43-0.188,5.023c4.771-4.471,7.123-8.188,7.123-11.156
		c0-1.186-0.317-2.057-0.954-2.568c-0.572-0.516-1.525-0.91-2.928-1.189c-1.397-0.314-2.416-0.475-2.989-0.475h-0.062
		c0.125,0.672,0.188,1.979,0.188,3.916C229.521,476.079,229.458,478.252,229.331,480.944L229.331,480.944z M229.013,491.11
		c-0.063,0.752-0.063,1.463-0.063,2.176c0,0.75,0,1.344-0.062,1.816v1.387v1.066v0.793c-0.062,0.236-0.062,0.434-0.127,0.555
		c0,0.119,0,0.275-0.064,0.395c-0.062,0.078-0.062,0.197-0.127,0.234c-0.062,0.041-0.128,0.121-0.191,0.16
		c-0.19,0.117-0.508,0.197-0.826,0.197c-0.383,0-0.698-0.158-1.018-0.436c-0.317-0.316-0.508-0.791-0.508-1.465l-0.064-0.195v-0.277
		v-2.572v-3.125c0.064-0.947,0.064-1.463,0.064-1.502v-1.621c0-0.041,0.063-1.266,0.063-3.639c0.127-2.412,0.127-4.945,0.19-7.674
		c0.062-2.73,0.062-4.512,0.062-5.381c0-0.91-0.062-1.543-0.126-1.859l-0.063-0.475c0-0.672,0.444-0.988,1.271-0.988h0.063
		c1.337,0.039,2.989,0.238,5.089,0.633c2.098,0.355,3.562,0.83,4.452,1.424c0.826,0.553,1.334,1.107,1.591,1.66
		c0.254,0.516,0.383,1.465,0.383,2.85c0,0.041,0,0.117,0.062,0.236v0.436c0,2.137-1.209,4.588-3.562,7.357
		c-2.416,2.77-4.197,4.469-5.405,5.104c-0.384,0.197-0.701,0.396-1.019,0.512L229.013,491.11L229.013,491.11z"/>
	<path fill="#EB891B" d="M279.808,495.26c0.698-0.711,1.017-1.621,1.017-2.768c0-1.502-0.382-3.166-1.144-4.986l-0.382-0.908
		c-0.129-0.395-0.254-0.674-0.383-0.83c-0.062-0.197-0.254-0.436-0.51-0.793c-0.189-0.354-0.508-0.711-0.89-1.025
		c-0.382-0.396-0.892-0.791-1.526-1.268l-1.783-1.105l-2.67-1.74c-0.892-0.633-1.463-1.068-1.717-1.424
		c-0.445-0.594-0.638-1.742-0.638-3.482c0-2.332,0.444-3.797,1.272-4.43c0.825-0.592,2.162-0.908,4.008-0.908
		c1.654,0,3.18,0.197,4.707,0.631c1.398,0.436,2.164,0.871,2.164,1.385c0,0.277-0.129,0.516-0.447,0.713
		c-0.317,0.197-0.698,0.316-1.207,0.316c-0.256,0-0.954-0.197-2.163-0.553c-1.21-0.357-2.479-0.555-3.817-0.555h-0.127
		c-0.826,0.078-1.271,1.385-1.271,3.955v1.145c0.189,0.357,0.382,0.674,0.51,0.869c0.254,0.199,0.443,0.359,0.637,0.516
		c0.254,0.078,0.699,0.357,1.336,0.752c0.635,0.396,1.336,0.869,2.035,1.385c1.461,1.029,2.605,1.979,3.371,2.85
		c0.891,0.83,1.398,1.502,1.654,1.898c0.188,0.475,0.443,1.025,0.697,1.738c0.254,0.711,0.445,1.268,0.638,1.621
		c0.637,1.189,0.954,2.572,0.954,4.193c0,2.018-0.637,3.521-1.846,4.627c-1.207,1.029-3.498,1.781-6.871,2.217
		c-0.188,0.039-0.379,0.039-0.697,0.039c-1.592,0-2.735-0.594-3.562-1.857c-0.826-1.188-1.209-2.609-1.209-4.232
		c0-1.068,0.19-2.018,0.572-2.73c0.382-0.791,0.891-1.145,1.525-1.145c0.318,0,0.701,0.117,1.082,0.354
		c0.381,0.199,0.572,0.477,0.572,0.832v0.711c0,0.438,0,1.027-0.127,1.859c0,0.83-0.064,1.387-0.064,1.703
		c0,1.541,0.639,2.332,1.846,2.332c0.445,0,1.209-0.158,2.227-0.438C278.407,496.45,279.109,495.973,279.808,495.26L279.808,495.26z
		"/>
	<path fill="#EB891B" d="M310.342,481.5c0-2.691-0.062-4.195-0.127-4.512V476v-2.967c0-1.939,0.443-2.926,1.398-2.926h0.127
		c0.574,0.039,1.02,0.314,1.271,0.867c0.254,0.518,0.383,1.582,0.383,3.205v1.426c-0.191,3.045-0.383,9.529-0.637,19.381
		c-0.064,0.236-0.064,0.594-0.129,1.107v1.227c-0.061,0.275-0.189,0.594-0.443,0.869c-0.256,0.314-0.637,0.516-1.08,0.633
		c-0.828,0.275-2.229,0.436-4.199,0.436c-2.229,0-3.881-0.197-4.963-0.514c-1.08-0.396-1.717-0.752-1.779-1.188
		c-0.191-1.105-0.254-8.148-0.254-21.084c0-3.201,0.062-4.98,0.125-5.34c0-0.234,0.191-0.434,0.51-0.594
		c0.318-0.158,0.701-0.236,1.018-0.236c0.129,0.039,0.256,0.078,0.383,0.117c0.189,0.041,0.254,0.08,0.383,0.119
		c0,0.039,0.062,0.16,0.125,0.316c0.447,1.465,0.639,7.357,0.639,17.682c0,2.768,0,4.508,0.062,5.301
		c0.062,0.713,0.062,1.461,0.062,2.215v0.672v0.277c0.445,0.199,1.271,0.396,2.545,0.555c1.336,0.156,2.48,0.236,3.436,0.236h0.316
		c0.127-0.041,0.256-0.041,0.318-0.041c0.318-1.58,0.51-7,0.51-16.256V481.5L310.342,481.5z"/>
	<path fill="#EB891B" d="M329.743,477.067c0.062-2.609,0.129-3.992,0.129-4.271c0-0.594-0.066-1.146-0.129-1.582l-0.127-0.672
		c0-0.119,0.062-0.238,0.256-0.436c0.316-0.277,0.635-0.438,0.951-0.438c1.338,0.197,1.973,1.189,1.973,2.887l-0.061,3.086
		c0,1.818,0,4.984-0.064,9.492c-0.064,4.551-0.064,7.598-0.064,9.141l0.064,1.896v0.197c-0.064,0.988-0.189,1.74-0.383,2.217
		c-0.191,0.473-0.699,0.711-1.4,0.711c-0.57-0.119-0.953-0.238-1.016-0.395c-0.129-0.121-0.254-0.514-0.318-1.189v-2.451v-7.002
		C329.553,483.356,329.616,479.598,329.743,477.067L329.743,477.067z"/>
	<path fill="#EB891B" d="M353.598,498.823v-0.199 M356.842,487.272v2.295c-0.062,5.732-0.189,8.781-0.254,9.096
		c-0.127,0.518-0.51,0.793-1.209,0.793c-0.891,0-1.398-0.199-1.527-0.633c-0.062-0.357-0.062-2.334-0.127-5.855
		c-0.062-3.52-0.062-7.516-0.127-11.904c-0.062-4.395-0.127-7.557-0.189-9.494H351.5c-0.764-0.039-1.336-0.039-1.719-0.078
		c-0.381-0.041-0.826-0.08-1.271-0.119c-0.445-0.08-0.764-0.158-1.018-0.316c-0.127-0.08-0.256-0.277-0.256-0.475
		c0-0.438,0.383-0.713,1.145-0.791c0.764-0.158,2.734-0.197,5.854-0.197s5.088,0.039,5.979,0.119c0.891,0.078,1.4,0.277,1.59,0.633
		v0.197c-0.062,0.236-0.125,0.434-0.316,0.514c-0.127,0.158-0.572,0.236-1.271,0.355c-0.766,0.119-1.908,0.158-3.373,0.158V487.272
		L356.842,487.272z"/>
	<path fill="#EB891B" d="M386.36,495.26c0.697-0.711,1.018-1.621,1.018-2.768c0-1.502-0.381-3.166-1.145-4.986l-0.383-0.908
		c-0.127-0.395-0.256-0.674-0.381-0.83c-0.064-0.197-0.256-0.436-0.512-0.793c-0.188-0.354-0.508-0.711-0.889-1.025
		c-0.383-0.396-0.891-0.791-1.525-1.268l-1.783-1.105l-2.67-1.74c-0.893-0.633-1.465-1.068-1.719-1.424
		c-0.445-0.594-0.637-1.742-0.637-3.482c0-2.332,0.445-3.797,1.271-4.43c0.828-0.592,2.164-0.908,4.01-0.908
		c1.652,0,3.178,0.197,4.707,0.631c1.396,0.436,2.162,0.871,2.162,1.385c0,0.277-0.127,0.516-0.445,0.713
		c-0.32,0.197-0.699,0.316-1.207,0.316c-0.258,0-0.955-0.197-2.164-0.553c-1.209-0.357-2.48-0.555-3.816-0.555h-0.127
		c-0.828,0.078-1.273,1.385-1.273,3.955v1.145c0.191,0.357,0.383,0.674,0.512,0.869c0.254,0.199,0.443,0.359,0.635,0.516
		c0.256,0.078,0.701,0.357,1.336,0.752c0.635,0.396,1.336,0.869,2.035,1.385c1.463,1.029,2.605,1.979,3.371,2.85
		c0.891,0.83,1.398,1.502,1.654,1.898c0.189,0.475,0.445,1.025,0.697,1.738c0.256,0.711,0.447,1.268,0.639,1.621
		c0.637,1.189,0.953,2.572,0.953,4.193c0,2.018-0.637,3.521-1.844,4.627c-1.209,1.029-3.5,1.781-6.871,2.217
		c-0.189,0.039-0.381,0.039-0.699,0.039c-1.59,0-2.734-0.594-3.562-1.857c-0.826-1.188-1.209-2.609-1.209-4.232
		c0-1.068,0.191-2.018,0.572-2.73c0.383-0.791,0.891-1.145,1.527-1.145c0.318,0,0.699,0.117,1.082,0.354
		c0.381,0.199,0.572,0.477,0.572,0.832v0.711c0,0.438,0,1.027-0.127,1.859c0,0.83-0.064,1.387-0.064,1.703
		c0,1.541,0.637,2.332,1.846,2.332c0.443,0,1.207-0.158,2.227-0.438C384.958,496.45,385.659,495.973,386.36,495.26L386.36,495.26z"
		/>
	<polygon fill="#0093DD" points="357.086,310.147 418.6,423.922 418.67,423.866 357.133,309.982 	"/>
	<path fill="#0093DD" d="M367.067,306.913l52.293,116.809c0.189-0.035-0.111,0.057,0.064-0.023l-52.268-116.882L367.067,306.913z"/>
	<polygon fill="#0093DD" points="420.245,423.485 420.334,423.458 397.528,301.795 397.409,301.819 	"/>
	<polygon fill="#0093DD" points="420.647,423.125 423.331,305.609 423.27,305.603 420.586,423.157 	"/>
	<polygon fill="#0093DD" points="445.616,429.606 445.674,429.651 449.706,366.741 449.463,366.698 449.901,364.174 
		452.717,313.047 452.67,313.053 	"/>
	<polygon fill="#0093DD" points="458.575,352.114 446.129,430.116 446.194,430.155 458.813,352.172 	"/>
	<polygon fill="#0093DD" points="446.547,430.688 446.6,430.743 480.704,322.381 480.651,322.338 	"/>
	<polygon fill="#0093DD" points="446.967,431.163 447.022,431.194 486.997,324.836 486.948,324.799 	"/>
	<polygon fill="#0093DD" points="486.204,366.653 447.641,430.723 447.743,430.616 486.436,366.741 486.436,366.741 
		486.196,366.698 	"/>
	<polygon fill="#0093DD" points="447.188,431.217 447.192,431.278 524.202,347.17 524.157,347.131 	"/>
	<polygon fill="#0093DD" points="486.461,366.614 514.141,340.838 514.112,340.795 487.631,365.247 486.827,365.999 
		486.303,366.489 486.68,366.786 	"/>
	<polygon fill="#0093DD" points="486.915,365.917 505.477,335.435 505.43,335.39 486.571,366.038 486.51,366.361 	"/>
	<polygon fill="#0093DD" points="493.944,326.967 493.901,326.958 486.204,366.653 486.196,366.698 486.436,366.741 	"/>
	<polygon fill="#0093DD" points="458.813,352.172 467.657,316.739 467.631,316.715 459.772,347.352 458.575,352.114 
		459.051,352.233 	"/>
	<polygon fill="#0093DD" points="459.247,349.435 464.12,316.133 464.073,316.127 458.575,352.114 	"/>
	<polygon fill="#0093DD" points="449.706,366.741 458.676,314.989 458.627,314.975 449.901,364.174 449.463,366.698 	"/>
	<polygon fill="#0093DD" points="414.723,303.842 414.667,303.874 412.272,358.995 412.362,358.991 	"/>
	<polygon fill="#0093DD" points="412.362,358.991 405.258,301.795 405.167,301.635 412.268,359.092 	"/>
	<polygon fill="#0093DD" points="383.61,301.654 383.479,301.524 396.571,362.042 396.655,362.186 	"/>
	<path fill="#0093DD" d="M419.622,423.67l-45.248-120.52c-0.094-0.248-0.209-0.792-0.094-0.49l45.4,120.973L419.622,423.67z"/>
	<rect x="411.915" y="358.87" fill="#0093DD" width="0.125" height="14.163"/>
	<polygon fill="#0093DD" points="420.459,423.297 420.528,423.305 412.333,359.614 412.268,359.092 412.241,358.872 412.36,358.991 
			"/>
	<path fill="#0093DD" d="M438.69,309.135h0.543l-0.182,1.988h-0.543L438.69,309.135z"/>
	<path fill="#0093DD" d="M439.34,309.461c-0.176-0.063,0.105,0.041-0.066-0.021l-18.625,113.941l0.068-0.014L439.34,309.461z"/>
	<path fill="#EB891B" d="M385.579,376.079l-3.797-7.104c-2.033,0.384-4.059,0.869-6.062,1.462c-0.543,0.161-1.082,0.329-1.617,0.504
		c-1.289,0.423-2.553,0.886-3.791,1.384c0.527,1.66,0.713,3.414,0.539,5.139c1.168-0.25,2.342-0.467,3.518-0.648
		C378.081,376.239,381.831,376,385.579,376.079L385.579,376.079z"/>
</g>
</svg>
